<svg width="20" height="21" viewBox="0 0 20 21" fill="none" xmlns="http://www.w3.org/2000/svg">
<path d="M7.14286 1.77346V3.04177H12.8571V1.77346C12.8571 1.07311 13.4955 0.505142 14.2857 0.505142C15.0759 0.505142 15.7143 1.07311 15.7143 1.77346V3.04177H17.8571C19.0402 3.04177 20 3.89353 20 4.94424V6.84672H0V4.94424C0 3.89353 0.959375 3.04177 2.14286 3.04177H4.28571V1.77346C4.28571 1.07311 4.92411 0.505142 5.71429 0.505142C6.50446 0.505142 7.14286 1.07311 7.14286 1.77346ZM0 8.11503H20V18.8957C20 19.946 19.0402 20.7982 17.8571 20.7982H2.14286C0.959375 20.7982 0 19.946 0 18.8957V8.11503ZM2.85714 12.5541C2.85714 12.9029 3.17679 13.1883 3.57143 13.1883H5C5.39286 13.1883 5.71429 12.9029 5.71429 12.5541V11.2858C5.71429 10.937 5.39286 10.6517 5 10.6517H3.57143C3.17679 10.6517 2.85714 10.937 2.85714 11.2858V12.5541ZM8.57143 12.5541C8.57143 12.9029 8.89286 13.1883 9.28571 13.1883H10.7143C11.1071 13.1883 11.4286 12.9029 11.4286 12.5541V11.2858C11.4286 10.937 11.1071 10.6517 10.7143 10.6517H9.28571C8.89286 10.6517 8.57143 10.937 8.57143 11.2858V12.5541ZM15 10.6517C14.6071 10.6517 14.2857 10.937 14.2857 11.2858V12.5541C14.2857 12.9029 14.6071 13.1883 15 13.1883H16.4286C16.8214 13.1883 17.1429 12.9029 17.1429 12.5541V11.2858C17.1429 10.937 16.8214 10.6517 16.4286 10.6517H15ZM2.85714 17.6274C2.85714 17.9762 3.17679 18.2616 3.57143 18.2616H5C5.39286 18.2616 5.71429 17.9762 5.71429 17.6274V16.3591C5.71429 16.0103 5.39286 15.7249 5 15.7249H3.57143C3.17679 15.7249 2.85714 16.0103 2.85714 16.3591V17.6274ZM9.28571 15.7249C8.89286 15.7249 8.57143 16.0103 8.57143 16.3591V17.6274C8.57143 17.9762 8.89286 18.2616 9.28571 18.2616H10.7143C11.1071 18.2616 11.4286 17.9762 11.4286 17.6274V16.3591C11.4286 16.0103 11.1071 15.7249 10.7143 15.7249H9.28571ZM14.2857 17.6274C14.2857 17.9762 14.6071 18.2616 15 18.2616H16.4286C16.8214 18.2616 17.1429 17.9762 17.1429 17.6274V16.3591C17.1429 16.0103 16.8214 15.7249 16.4286 15.7249H15C14.6071 15.7249 14.2857 16.0103 14.2857 16.3591V17.6274Z" fill="#018F55"/>
</svg>
