<svg width="20" height="21" viewBox="0 0 20 21" fill="none" xmlns="http://www.w3.org/2000/svg">
<path d="M17.8571 14.5243V10.9006C17.8568 10.5163 17.7061 10.1478 17.4383 9.87605C17.1705 9.6043 16.8073 9.45146 16.4286 9.45107H10.7143V5.82732H12.8571C13.2359 5.82693 13.5991 5.67409 13.8669 5.40234C14.1347 5.13059 14.2853 4.76213 14.2857 4.37781V1.47881C14.2853 1.09449 14.1347 0.726029 13.8669 0.454278C13.5991 0.182526 13.2359 0.0296882 12.8571 0.0293045H7.14286C6.76409 0.0296882 6.40095 0.182526 6.13312 0.454278C5.8653 0.726029 5.71466 1.09449 5.71429 1.47881V4.37781C5.71466 4.76213 5.8653 5.13059 6.13312 5.40234C6.40095 5.67409 6.76409 5.82693 7.14286 5.82732H9.28571V9.45107H3.57143C3.19266 9.45146 2.82952 9.6043 2.56169 9.87605C2.29387 10.1478 2.14324 10.5163 2.14286 10.9006V14.5243H0V20.3223H5.71429V14.5243H3.57143V10.9006H9.28571V14.5243H7.14286V20.3223H12.8571V14.5243H10.7143V10.9006H16.4286V14.5243H14.2857V20.3223H20V14.5243H17.8571ZM7.14286 1.47881H12.8571V4.37781H7.14286V1.47881ZM4.28571 18.8728H1.42857V15.9738H4.28571V18.8728ZM11.4286 18.8728H8.57143V15.9738H11.4286V18.8728ZM18.5714 18.8728H15.7143V15.9738H18.5714V18.8728Z" fill="#018F55"/>
</svg>
