<svg width="86" height="91" viewBox="0 0 86 91" fill="none" xmlns="http://www.w3.org/2000/svg">
<path d="M9.5 68C11.9853 68 14 65.9853 14 63.5C14 61.0147 11.9853 59 9.5 59C7.01472 59 5 61.0147 5 63.5C5 65.9853 7.01472 68 9.5 68Z" stroke="#018F55" stroke-width="9" stroke-linecap="round" stroke-linejoin="round"/>
<path d="M32 14C34.4853 14 36.5 11.9853 36.5 9.5C36.5 7.01472 34.4853 5 32 5C29.5147 5 27.5 7.01472 27.5 9.5C27.5 11.9853 29.5147 14 32 14Z" stroke="#018F55" stroke-width="9" stroke-linecap="round" stroke-linejoin="round"/>
<path d="M27.5 50L41 41L45.5 23C59 27.5 59 41 59 50M9.5 86L27.5 77V63.5H81.5L9.5 86ZM41 77H81.5H41Z" stroke="#018F55" stroke-width="9" stroke-linecap="round" stroke-linejoin="round"/>
</svg>
