<svg width="18" height="18" viewBox="0 0 18 18" fill="none" xmlns="http://www.w3.org/2000/svg">
<path d="M9.45996 5.375C9.45996 5.24239 9.40728 5.11521 9.31351 5.02145C9.21975 4.92768 9.09257 4.875 8.95996 4.875C8.82735 4.875 8.70018 4.92768 8.60641 5.02145C8.51264 5.11521 8.45996 5.24239 8.45996 5.375V9.735L11.41 11.735C11.4643 11.7759 11.5264 11.8052 11.5925 11.8213C11.6586 11.8373 11.7272 11.8397 11.7942 11.8284C11.8613 11.817 11.9253 11.792 11.9824 11.7551C12.0394 11.7181 12.0884 11.6699 12.1261 11.6133C12.1639 11.5568 12.1898 11.4932 12.2022 11.4263C12.2145 11.3595 12.2131 11.2908 12.198 11.2245C12.183 11.1582 12.1545 11.0956 12.1144 11.0407C12.0744 10.9858 12.0235 10.9396 11.965 10.905L9.46496 9.21L9.45996 5.375Z" fill="#018F55"/>
<path d="M16.5601 6.40502C16.2562 6.54414 15.935 6.64169 15.6051 6.69502C16.1327 8.19722 16.1344 9.8341 15.6099 11.3374C15.0853 12.8407 14.0657 14.1212 12.7181 14.9691C11.3704 15.817 9.77474 16.1819 8.19253 16.0041C6.61032 15.8263 5.13543 15.1163 4.0096 13.9905C2.88376 12.8646 2.17376 11.3898 1.99596 9.80754C1.81816 8.22533 2.18311 6.62965 3.03099 5.28202C3.87887 3.93439 5.15939 2.91475 6.66268 2.39022C8.16597 1.86569 9.80286 1.86738 11.3051 2.39502C11.3584 2.0651 11.4559 1.74388 11.5951 1.44002C9.8782 0.846373 8.01079 0.852408 6.2978 1.45714C4.58482 2.06187 3.1275 3.22956 2.16386 4.76949C1.20021 6.30943 0.787194 8.13061 0.992255 9.93559C1.19732 11.7406 2.00834 13.4227 3.29286 14.7072C4.57739 15.9917 6.25951 16.8028 8.06449 17.0078C9.86947 17.2129 11.6906 16.7999 13.2306 15.8362C14.7705 14.8726 15.9382 13.4153 16.5429 11.7023C17.1477 9.98929 17.1537 8.12187 16.5601 6.40502Z" fill="#018F55"/>
<path d="M9.00001 3.19C7.56791 3.19302 6.18793 3.72758 5.12751 4.69008C4.06708 5.65258 3.40173 6.97448 3.2604 8.39959C3.11908 9.82469 3.51183 11.2515 4.36256 12.4036C5.21329 13.5556 6.4614 14.3508 7.86501 14.635L8.00001 13.85C7.26534 13.7199 6.56908 13.4271 5.96229 12.993C5.35551 12.5589 4.85356 11.9944 4.49327 11.3411C4.13297 10.6878 3.92345 9.96209 3.88007 9.21726C3.8367 8.47242 3.96056 7.72732 4.24258 7.03658C4.5246 6.34584 4.95763 5.72697 5.50992 5.22534C6.06221 4.72371 6.71977 4.35204 7.43438 4.13758C8.14898 3.92311 8.90253 3.87129 9.63977 3.98592C10.377 4.10054 11.0792 4.3787 11.695 4.8C11.5065 4.45145 11.3749 4.07505 11.305 3.685C10.5793 3.36188 9.79436 3.1933 9.00001 3.19Z" fill="#018F55"/>
<path d="M15 5.5C16.3807 5.5 17.5 4.38071 17.5 3C17.5 1.61929 16.3807 0.5 15 0.5C13.6193 0.5 12.5 1.61929 12.5 3C12.5 4.38071 13.6193 5.5 15 5.5Z" fill="#018F55"/>
</svg>
