<svg width="63" height="44" viewBox="0 0 63 44" fill="none" xmlns="http://www.w3.org/2000/svg">
<path d="M38.25 35.6147H4.5L4.49325 5.7498L30.2197 21.4124C30.5959 21.6413 31.0425 21.7639 31.5 21.7639C31.9575 21.7639 32.4041 21.6413 32.7803 21.4124L58.5 5.75771V23.7431H63V3.95719C62.9982 2.90816 62.5235 1.90255 61.68 1.16077C60.8365 0.418991 59.6929 0.00157002 58.5 0H4.5C3.30689 0.00104762 2.16299 0.418301 1.31934 1.16019C0.47568 1.90208 0.00119132 2.908 0 3.95719V35.6147C0.00178537 36.6637 0.476464 37.6694 1.31999 38.4111C2.16352 39.1529 3.30707 39.5703 4.5 39.5719H38.25V35.6147ZM53.5477 3.95719L31.5 17.38L9.45225 3.95719H53.5477Z" fill="#018F55"/>
<path d="M53.9998 43.529C58.9703 43.529 62.9998 39.9856 62.9998 35.6146C62.9998 31.2436 58.9703 27.7002 53.9998 27.7002C49.0292 27.7002 44.9998 31.2436 44.9998 35.6146C44.9998 39.9856 49.0292 43.529 53.9998 43.529Z" fill="#018F55"/>
</svg>
