<svg width="12" height="18" viewBox="0 0 12 18" fill="none" xmlns="http://www.w3.org/2000/svg">
<path d="M11.2464 0.505747C11.2464 0.373182 11.1937 0.246047 11.1 0.15231C11.0063 0.0585721 10.8791 0.00591088 10.7466 0.00591088H8.24737C6.98891 -0.0567777 5.75679 0.381179 4.82022 1.22409C3.88365 2.067 3.31878 3.24634 3.24902 4.50443V7.20355H0.749836C0.617271 7.20355 0.490136 7.25621 0.396399 7.34995C0.302661 7.44368 0.25 7.57082 0.25 7.70338V10.3025C0.25 10.4351 0.302661 10.5622 0.396399 10.656C0.490136 10.7497 0.617271 10.8024 0.749836 10.8024H3.24902V17.5002C3.24902 17.6327 3.30168 17.7599 3.39541 17.8536C3.48915 17.9473 3.61629 18 3.74885 18H6.74787C6.88043 18 7.00757 17.9473 7.1013 17.8536C7.19504 17.7599 7.2477 17.6327 7.2477 17.5002V10.8024H9.86684C9.97799 10.804 10.0865 10.7685 10.1752 10.7015C10.2639 10.6345 10.3278 10.5398 10.3567 10.4325L11.0764 7.83334C11.0963 7.75949 11.099 7.68205 11.0843 7.607C11.0695 7.53195 11.0377 7.46129 10.9914 7.40045C10.945 7.33961 10.8853 7.29023 10.8169 7.25609C10.7485 7.22195 10.6731 7.20398 10.5966 7.20355H7.2477V4.50443C7.27257 4.25699 7.38877 4.0277 7.57362 3.86134C7.75847 3.69497 7.99869 3.60348 8.24737 3.60473H10.7466C10.8791 3.60473 11.0063 3.55207 11.1 3.45833C11.1937 3.36459 11.2464 3.23746 11.2464 3.10489V0.505747Z" fill="#018F55"/>
</svg>
