<svg width="43" height="57" viewBox="0 0 43 57" fill="none" xmlns="http://www.w3.org/2000/svg">
<path d="M34 4.32844C35.1272 4.32844 36.2082 4.69511 37.0052 5.34779C37.8022 6.00047 38.25 6.8857 38.25 7.80873V49.5723C38.25 50.4953 37.8022 51.3805 37.0052 52.0332C36.2082 52.6859 35.1272 53.0525 34 53.0525H8.5C7.37283 53.0525 6.29183 52.6859 5.4948 52.0332C4.69777 51.3805 4.25 50.4953 4.25 49.5723V7.80873C4.25 6.8857 4.69777 6.00047 5.4948 5.34779C6.29183 4.69511 7.37283 4.32844 8.5 4.32844H34ZM8.5 0.848145C6.24566 0.848145 4.08365 1.58149 2.48959 2.88685C0.895533 4.19222 0 5.96267 0 7.80873V49.5723C0 51.4183 0.895533 53.1888 2.48959 54.4941C4.08365 55.7995 6.24566 56.5328 8.5 56.5328H34C36.2543 56.5328 38.4163 55.7995 40.0104 54.4941C41.6045 53.1888 42.5 51.4183 42.5 49.5723V7.80873C42.5 5.96267 41.6045 4.19222 40.0104 2.88685C38.4163 1.58149 36.2543 0.848145 34 0.848145L8.5 0.848145Z" fill="#018F55"/>
<path d="M21.2507 49.5724C22.3779 49.5724 23.4589 49.2057 24.2559 48.553C25.053 47.9004 25.5007 47.0151 25.5007 46.0921C25.5007 45.1691 25.053 44.2839 24.2559 43.6312C23.4589 42.9785 22.3779 42.6118 21.2507 42.6118C20.1236 42.6118 19.0426 42.9785 18.2455 43.6312C17.4485 44.2839 17.0007 45.1691 17.0007 46.0921C17.0007 47.0151 17.4485 47.9004 18.2455 48.553C19.0426 49.2057 20.1236 49.5724 21.2507 49.5724Z" fill="#018F55"/>
</svg>
