<svg width="20" height="21" viewBox="0 0 20 21" fill="none" xmlns="http://www.w3.org/2000/svg">
<path d="M19.5861 9.99491L10.499 0.236887C10.4336 0.166438 10.3559 0.110547 10.2703 0.0724121C10.1847 0.0342775 10.093 0.0146484 10.0004 0.0146484C9.90779 0.0146484 9.81608 0.0342775 9.73053 0.0724121C9.64497 0.110547 9.56726 0.166438 9.50183 0.236887L0.414753 9.99491C0.150017 10.2794 0 10.6658 0 11.0689C0 11.9057 0.633161 12.5861 1.41193 12.5861H2.36939V19.549C2.36939 19.9687 2.68487 20.3077 3.07535 20.3077H8.58849V14.9972H11.0594V20.3077H16.9255C17.316 20.3077 17.6314 19.9687 17.6314 19.549V12.5861H18.5889C18.9639 12.5861 19.3235 12.4273 19.5883 12.1404C20.1376 11.5478 20.1376 10.5876 19.5861 9.99491Z" fill="#018F55"/>
</svg>
