<svg width="108" height="108" viewBox="0 0 108 108" fill="none" xmlns="http://www.w3.org/2000/svg">
<path d="M52.0205 32.4388C54.655 32.441 57.1824 31.3967 59.047 29.5356C60.9116 27.6745 61.9606 25.149 61.9633 22.5146C61.9622 21.2102 61.7041 19.9189 61.2037 18.7143C60.7034 17.5097 59.9706 16.4155 59.0473 15.4942C58.124 14.5729 57.0282 13.8426 55.8225 13.3449C54.6168 12.8472 53.3249 12.592 52.0205 12.5938C46.5277 12.5938 42.0761 17.0353 42.0761 22.5146C42.0797 25.149 43.1292 27.6743 44.9939 29.5352C46.8587 31.3962 49.386 32.4405 52.0205 32.4388ZM82.3162 99.5287H3.04758C0.815016 99.5287 1.04452 101.284 1.04452 101.284V104.205C1.04452 104.205 0.842016 108 4.74014 108H103.994C107.917 108 107.705 104.293 107.705 104.293V96.2026C107.705 96.2026 107.372 93.6444 104.363 93.6444H94.6906C91.3747 93.6444 88.6342 99.527 82.3179 99.527L82.3162 99.5287ZM90.0247 81.6041C90.0247 86.535 94.0376 90.5394 98.9819 90.5394C103.925 90.5394 107.948 86.5333 107.948 81.6041C107.948 76.6546 103.925 72.6654 98.9819 72.6654C97.8066 72.6632 96.6424 72.8927 95.5558 73.3409C94.4693 73.7891 93.4818 74.4472 92.6498 75.2774C91.8179 76.1076 91.1578 77.0938 90.7074 78.1794C90.2569 79.265 90.0249 80.4287 90.0247 81.6041ZM60.7449 64.5553C60.4471 65.4642 59.9482 66.2943 59.2853 66.9838C58.6224 67.6733 57.8125 68.2045 56.916 68.5378L48.9391 71.4959L51.8821 74.417H65.3484L65.34 53.8042L60.8326 64.4304C60.8107 64.481 60.7702 64.5097 60.7432 64.5553H60.7449Z" fill="#018F55"/>
<path d="M80.0853 79.3141H52.2416L45.5287 72.7599L40.856 74.4811C37.3899 75.7214 33.1695 73.8281 31.8684 70.3839C31.1023 68.2458 31.2086 65.858 32.4877 64.1182C31.9156 64.0929 15.6009 64.1182 15.6009 64.1182C14.9568 64.1162 14.3186 64.2411 13.7227 64.4858C13.1269 64.7305 12.5851 65.0902 12.1283 65.5443C11.6715 65.9985 11.3086 66.5382 11.0604 67.1326C10.8123 67.727 10.6836 68.3644 10.6818 69.0086C10.6818 71.7204 12.8874 73.8399 15.6009 73.8399H32.211L38.7973 83.8113L4.79246 86.5434C3.61554 86.8121 2.57891 87.5051 1.88069 88.4899C1.18247 89.4747 0.87162 90.6823 1.00755 91.8819C1.14347 93.0814 1.71664 94.1888 2.61752 94.9924C3.5184 95.796 4.68381 96.2395 5.89102 96.2381L44.0437 96.2431C43.3545 95.1414 42.9869 93.869 42.9823 92.5694C42.9836 90.7022 43.726 88.9118 45.0463 87.5915C46.3666 86.2712 48.157 85.5288 50.0242 85.5275H65.2893L77.6604 82.9439L78.3472 86.2295L65.6353 88.8839H50.0225C49.0466 88.8741 48.1068 89.2523 47.4098 89.9354C46.7128 90.6185 46.3156 91.5505 46.3058 92.5264C46.296 93.5023 46.6742 94.4421 47.3573 95.1391C48.0404 95.8362 48.9724 96.2333 49.9483 96.2431L80.1512 96.2465C82.3885 96.2367 84.5308 95.3411 86.1095 93.7558C87.6882 92.1705 88.5747 90.0244 88.5751 87.7871C88.5749 86.6729 88.3551 85.5698 87.9282 84.5407C87.5012 83.5116 86.8756 82.5768 86.0871 81.7897C85.2986 81.0026 84.3627 80.3787 83.3328 79.9536C82.303 79.5285 81.1995 79.3107 80.0853 79.3124V79.3141Z" fill="#018F55"/>
<path d="M40.2672 71.4066C39.322 71.8198 38.2515 71.8413 37.2905 71.4664C36.3295 71.0916 35.5563 70.3509 35.1406 69.4069C34.9342 68.9387 34.8223 68.4343 34.8113 67.9228C34.8003 67.4112 34.8905 66.9025 35.0766 66.4259C35.2627 65.9492 35.5411 65.514 35.8958 65.1453C36.2505 64.7765 36.6746 64.4814 37.1436 64.2769L51.3203 58.9545L55.7011 48.5055L52.8458 47.4508L49.1215 56.398L38.3299 60.372V49.4336L27.7814 60.9542L15.844 60.9424C15.844 60.9424 36.7336 38.043 37.3866 37.3579C38.2523 36.499 40.2317 35.0747 43.9645 35.0747H57.3784C64.9992 35.0747 66.4656 42.6718 64.9064 46.6037L57.8914 63.6171C57.6779 64.1056 57.3678 64.546 56.9798 64.9117C56.5918 65.2773 56.1339 65.5608 55.6336 65.745L40.2672 71.4032V71.4066Z" fill="#018F55"/>
</svg>
