<svg width="19" height="18" viewBox="0 0 19 18" fill="none" xmlns="http://www.w3.org/2000/svg">
<path d="M12.4 5.4C11.6336 5.39737 10.8742 5.54589 10.1652 5.83707C9.45619 6.12826 8.81157 6.55638 8.26822 7.09695C7.72486 7.63752 7.29343 8.27992 6.99861 8.9874C6.70379 9.69488 6.55136 10.4535 6.55005 11.22V17.1C6.55005 17.3387 6.64487 17.5676 6.81365 17.7364C6.98244 17.9052 7.21135 18 7.45005 18H9.55005C9.78874 18 10.0177 17.9052 10.1864 17.7364C10.3552 17.5676 10.45 17.3387 10.45 17.1V11.22C10.4499 10.9474 10.5071 10.6778 10.6181 10.4288C10.7291 10.1798 10.8913 9.95704 11.0941 9.77494C11.297 9.59284 11.5359 9.45554 11.7954 9.37198C12.0549 9.28843 12.3291 9.26049 12.6 9.29C13.0861 9.35121 13.5327 9.58866 13.8553 9.95731C14.1778 10.326 14.3539 10.8002 14.35 11.29V17.1C14.35 17.3387 14.4449 17.5676 14.6137 17.7364C14.7824 17.9052 15.0114 18 15.25 18H17.35C17.5887 18 17.8177 17.9052 17.9864 17.7364C18.1552 17.5676 18.25 17.3387 18.25 17.1V11.22C18.2487 10.4535 18.0963 9.69488 17.8015 8.9874C17.5067 8.27992 17.0752 7.63752 16.5319 7.09695C15.9885 6.55638 15.3439 6.12826 14.6349 5.83707C13.9259 5.54589 13.1665 5.39737 12.4 5.4Z" fill="#018F55"/>
<path d="M3.85 6.29999H1.15C0.652944 6.29999 0.25 6.70293 0.25 7.19999V17.1C0.25 17.597 0.652944 18 1.15 18H3.85C4.34706 18 4.75 17.597 4.75 17.1V7.19999C4.75 6.70293 4.34706 6.29999 3.85 6.29999Z" fill="#018F55"/>
<path d="M2.5 4.5C3.74264 4.5 4.75 3.49264 4.75 2.25C4.75 1.00736 3.74264 0 2.5 0C1.25736 0 0.25 1.00736 0.25 2.25C0.25 3.49264 1.25736 4.5 2.5 4.5Z" fill="#018F55"/>
</svg>
