<svg width="34" height="34" viewBox="0 0 34 34" fill="none" xmlns="http://www.w3.org/2000/svg">
<path d="M18.6667 24.5V26.375C18.6667 27.8668 18.1399 29.2976 17.2022 30.3525C16.2645 31.4074 14.9927 32 13.6667 32H7C5.67392 32 4.40215 31.4074 3.46447 30.3525C2.52678 29.2976 2 27.8668 2 26.375V7.625C2 6.13316 2.52678 4.70242 3.46447 3.64752C4.40215 2.59263 5.67392 2 7 2H13.6667C14.9927 2 16.2645 2.59263 17.2022 3.64752C18.1399 4.70242 18.6667 6.13316 18.6667 7.625V9.5M25.3333 24.5L32 17L25.3333 24.5ZM32 17L25.3333 9.5L32 17ZM32 17H8.66667H32Z" stroke="#018F55" stroke-width="3.33333" stroke-linecap="round" stroke-linejoin="round"/>
</svg>
