<svg width="81" height="81" viewBox="0 0 81 81" fill="none" xmlns="http://www.w3.org/2000/svg">
<path fill-rule="evenodd" clip-rule="evenodd" d="M74.25 4.5H6.75C6.15326 4.5 5.58097 4.73705 5.15901 5.15901C4.73705 5.58097 4.5 6.15326 4.5 6.75V74.25C4.5 74.8467 4.73705 75.419 5.15901 75.841C5.58097 76.2629 6.15326 76.5 6.75 76.5H74.25C74.8467 76.5 75.419 76.2629 75.841 75.841C76.2629 75.419 76.5 74.8467 76.5 74.25V6.75C76.5 6.15326 76.2629 5.58097 75.841 5.15901C75.419 4.73705 74.8467 4.5 74.25 4.5ZM6.75 0C4.95979 0 3.2429 0.711159 1.97703 1.97703C0.711159 3.2429 0 4.95979 0 6.75V74.25C0 76.0402 0.711159 77.7571 1.97703 79.023C3.2429 80.2888 4.95979 81 6.75 81H74.25C76.0402 81 77.7571 80.2888 79.023 79.023C80.2888 77.7571 81 76.0402 81 74.25V6.75C81 4.95979 80.2888 3.2429 79.023 1.97703C77.7571 0.711159 76.0402 0 74.25 0H6.75Z" fill="#018F55"/>
<path fill-rule="evenodd" clip-rule="evenodd" d="M57.3232 17.4285C57.3232 19.6642 56.4351 21.8083 54.8543 23.3891C53.2734 24.97 51.1293 25.8581 48.8936 25.8581C46.6579 25.8581 44.5138 24.97 42.933 23.3891C41.3521 21.8083 40.464 19.6642 40.464 17.4285C40.464 15.1931 41.352 13.0493 42.9327 11.4687C44.5133 9.888 46.6571 9 48.8925 9C51.1279 9 53.2717 9.888 54.8523 11.4687C56.433 13.0493 57.321 15.1931 57.321 17.4285H57.3232ZM18 54H31.113L40.9995 63.756L45.648 74.475C46.123 75.57 47.0135 76.4315 48.1237 76.8699C49.2339 77.3083 50.4727 77.2878 51.5678 76.8128C52.6628 76.3377 53.5242 75.4472 53.9626 74.337C54.4011 73.2269 54.3805 71.988 53.9055 70.893L48.9105 59.373C48.6812 58.8452 48.3527 58.3663 47.943 57.9622L43.9245 54H63C64.1935 54 65.3381 54.4741 66.182 55.318C67.0259 56.1619 67.5 57.3065 67.5 58.5V76.5H72V58.5C72 56.1131 71.0518 53.8239 69.364 52.136C67.6761 50.4482 65.3869 49.5 63 49.5H55.962C57.0262 49.2463 57.9615 48.6136 58.593 47.7203C59.2245 46.8269 59.509 45.7341 59.3932 44.6463C59.2773 43.5584 58.7692 42.55 57.9638 41.8096C57.1583 41.0693 56.1107 40.6477 55.017 40.6238C51.0705 40.5338 49.887 39.8768 49.0387 39.114C48.4695 38.5988 47.8328 37.818 46.9508 36.4635C46.3162 35.4915 45.6637 34.3958 44.8627 33.0525L43.7535 31.2008L43.6567 31.0433C43.3466 30.5089 43.0118 29.9894 42.6533 29.4862C42.2145 28.8945 41.4022 27.9338 40.0387 27.3668C38.6685 26.7952 37.3972 26.8942 36.612 27.018C35.867 27.1524 35.1307 27.3313 34.407 27.5535C32.454 28.1138 30.8272 29.5965 29.7607 30.7553C28.4275 32.2277 27.2928 33.8684 26.3857 35.6355C24.5745 39.141 22.9995 44.4398 25.2315 49.383L25.2855 49.5H18C15.6131 49.5 13.3239 50.4482 11.636 52.136C9.94821 53.8239 9 56.1131 9 58.5V76.5H13.5V58.5C13.5 57.3065 13.9741 56.1619 14.818 55.318C15.6619 54.4741 16.8065 54 18 54ZM52.4925 49.5H39.366L37.215 47.3783L40.6192 43.1235C41.3347 44.082 42.1177 44.991 43.0177 45.801C45.6615 48.1815 48.7103 49.1715 52.4925 49.5ZM24.462 54.1958L31.833 61.2653L29.9678 67.5585C29.8537 67.9432 29.6888 68.311 29.4772 68.652L25.5037 75.0555C24.8745 76.0697 23.8681 76.7923 22.7061 77.0645C21.544 77.3366 20.3214 77.136 19.3073 76.5067C18.2931 75.8775 17.5704 74.8711 17.2983 73.7091C17.0261 72.547 17.2267 71.3244 17.856 70.3102L21.5122 64.422L23.994 56.0452L24.462 54.1958Z" fill="#018F55"/>
</svg>
