<svg width="20" height="26" viewBox="0 0 20 26" fill="none" xmlns="http://www.w3.org/2000/svg">
<path d="M13.6364 7.37929C13.6364 8.35784 13.2532 9.29632 12.5713 9.98826C11.8893 10.6802 10.9644 11.0689 10 11.0689C9.03558 11.0689 8.11065 10.6802 7.4287 9.98826C6.74675 9.29632 6.36364 8.35784 6.36364 7.37929C6.36364 6.40073 6.74675 5.46226 7.4287 4.77032C8.11065 4.07837 9.03558 3.68964 10 3.68964C10.9644 3.68964 11.8893 4.07837 12.5713 4.77032C13.2532 5.46226 13.6364 6.40073 13.6364 7.37929ZM4.54545 20.293C4.30435 20.293 4.07312 20.3902 3.90263 20.5632C3.73214 20.7362 3.63636 20.9708 3.63636 21.2155C3.63636 21.4601 3.73214 21.6947 3.90263 21.8677C4.07312 22.0407 4.30435 22.1379 4.54545 22.1379H15.4545C15.6957 22.1379 15.9269 22.0407 16.0974 21.8677C16.2679 21.6947 16.3636 21.4601 16.3636 21.2155C16.3636 20.9708 16.2679 20.7362 16.0974 20.5632C15.9269 20.3902 15.6957 20.293 15.4545 20.293H4.54545ZM0 3.22844C0 2.3722 0.335226 1.55104 0.931933 0.945588C1.52864 0.340138 2.33795 0 3.18182 0H16.8182C17.6621 0 18.4714 0.340138 19.0681 0.945588C19.6648 1.55104 20 2.3722 20 3.22844V22.5991C20 23.4553 19.6648 24.2765 19.0681 24.8819C18.4714 25.4874 17.6621 25.8275 16.8182 25.8275H3.18182C2.33795 25.8275 1.52864 25.4874 0.931933 24.8819C0.335226 24.2765 0 23.4553 0 22.5991V3.22844ZM3.18182 1.84482C2.82016 1.84482 2.47331 1.9906 2.21758 2.25007C1.96185 2.50955 1.81818 2.86148 1.81818 3.22844V16.6034H4.54545V13.8362C4.54545 13.3469 4.73701 12.8776 5.07799 12.5317C5.41896 12.1857 5.88142 11.9913 6.36364 11.9913H13.6364C14.1186 11.9913 14.581 12.1857 14.922 12.5317C15.263 12.8776 15.4545 13.3469 15.4545 13.8362V16.6034H18.1818V3.22844C18.1818 2.86148 18.0381 2.50955 17.7824 2.25007C17.5267 1.9906 17.1798 1.84482 16.8182 1.84482H3.18182ZM1.81818 22.5991C1.81818 22.966 1.96185 23.318 2.21758 23.5774C2.47331 23.8369 2.82016 23.9827 3.18182 23.9827H16.8182C17.1798 23.9827 17.5267 23.8369 17.7824 23.5774C18.0381 23.318 18.1818 22.966 18.1818 22.5991V18.4482H1.81818V22.5991Z" fill="#018F55"/>
</svg>
