<svg width="20" height="21" viewBox="0 0 20 21" fill="none" xmlns="http://www.w3.org/2000/svg">
<path d="M17.2727 0.0439568H8.18182C7.4585 0.0439568 6.76481 0.364658 6.25335 0.935511C5.74188 1.50636 5.45455 2.28061 5.45455 3.08791V10.1905C5.45455 10.9978 5.74188 11.772 6.25335 12.3429C6.76481 12.9137 7.4585 13.2344 8.18182 13.2344H17.2727C17.996 13.2344 18.6897 12.9137 19.2012 12.3429C19.7127 11.772 20 10.9978 20 10.1905V3.08791C20 2.28061 19.7127 1.50636 19.2012 0.935511C18.6897 0.364658 17.996 0.0439568 17.2727 0.0439568ZM18.1818 10.1905C18.1818 10.4596 18.086 10.7177 17.9156 10.9079C17.7451 11.0982 17.5138 11.2051 17.2727 11.2051H8.18182C7.94071 11.2051 7.70948 11.0982 7.53899 10.9079C7.36851 10.7177 7.27273 10.4596 7.27273 10.1905V3.08791C7.27273 2.81881 7.36851 2.56073 7.53899 2.37045C7.70948 2.18016 7.94071 2.07326 8.18182 2.07326H17.2727C17.5138 2.07326 17.7451 2.18016 17.9156 2.37045C18.086 2.56073 18.1818 2.81881 18.1818 3.08791V10.1905ZM15 6.13187C14.6634 6.13314 14.3394 6.27421 14.0909 6.52758C13.8954 6.32927 13.6525 6.1986 13.3918 6.15145C13.131 6.10431 12.8636 6.14271 12.622 6.262C12.3804 6.3813 12.1751 6.57634 12.0309 6.82342C11.8868 7.07051 11.8101 7.359 11.8101 7.65385C11.8101 7.94869 11.8868 8.23718 12.0309 8.48427C12.1751 8.73136 12.3804 8.9264 12.622 9.04569C12.8636 9.16498 13.131 9.20339 13.3918 9.15624C13.6525 9.10909 13.8954 8.97842 14.0909 8.78011C14.2551 8.94664 14.4532 9.06596 14.668 9.12771C14.8828 9.18946 15.1079 9.19178 15.3237 9.13446C15.5396 9.07714 15.7396 8.96193 15.9065 8.7988C16.0734 8.63567 16.2021 8.42957 16.2814 8.19835C16.3608 7.96714 16.3884 7.71781 16.3619 7.47198C16.3354 7.22615 16.2556 6.99125 16.1293 6.78766C16.0031 6.58406 15.8342 6.41792 15.6374 6.30364C15.4406 6.18937 15.2218 6.1304 15 6.13187ZM13.6364 15.2637C13.3953 15.2637 13.164 15.3706 12.9935 15.5609C12.8231 15.7512 12.7273 16.0093 12.7273 16.2784V17.293C12.7273 17.5621 12.6315 17.8202 12.461 18.0105C12.2905 18.2008 12.0593 18.3077 11.8182 18.3077H2.72727C2.48617 18.3077 2.25494 18.2008 2.08445 18.0105C1.91396 17.8202 1.81818 17.5621 1.81818 17.293V13.2344H2.72727C2.96838 13.2344 3.19961 13.1275 3.3701 12.9372C3.54058 12.747 3.63636 12.4889 3.63636 12.2198C3.63636 11.9507 3.54058 11.6926 3.3701 11.5023C3.19961 11.312 2.96838 11.2051 2.72727 11.2051H1.81818V10.1905C1.81818 9.92137 1.91396 9.66329 2.08445 9.47301C2.25494 9.28273 2.48617 9.17583 2.72727 9.17583C2.96838 9.17583 3.19961 9.06892 3.3701 8.87864C3.54058 8.68836 3.63636 8.43027 3.63636 8.16117C3.63636 7.89207 3.54058 7.63399 3.3701 7.44371C3.19961 7.25342 2.96838 7.14652 2.72727 7.14652C2.00396 7.14652 1.31026 7.46722 0.7988 8.03807C0.287337 8.60893 0 9.38317 0 10.1905V17.293C0 18.1003 0.287337 18.8746 0.7988 19.4454C1.31026 20.0163 2.00396 20.337 2.72727 20.337H11.8182C12.5415 20.337 13.2352 20.0163 13.7467 19.4454C14.2581 18.8746 14.5455 18.1003 14.5455 17.293V16.2784C14.5455 16.0093 14.4497 15.7512 14.2792 15.5609C14.1087 15.3706 13.8775 15.2637 13.6364 15.2637ZM4.54545 16.2784H5.45455C5.69565 16.2784 5.92688 16.1715 6.09737 15.9812C6.26786 15.7909 6.36364 15.5328 6.36364 15.2637C6.36364 14.9946 6.26786 14.7366 6.09737 14.5463C5.92688 14.356 5.69565 14.2491 5.45455 14.2491H4.54545C4.30435 14.2491 4.07312 14.356 3.90263 14.5463C3.73214 14.7366 3.63636 14.9946 3.63636 15.2637C3.63636 15.5328 3.73214 15.7909 3.90263 15.9812C4.07312 16.1715 4.30435 16.2784 4.54545 16.2784Z" fill="#018F55"/>
</svg>
