<svg width="23" height="18" viewBox="0 0 23 18" fill="none" xmlns="http://www.w3.org/2000/svg">
<path d="M22.3933 2.13525C21.5642 2.5023 20.6846 2.74271 19.7841 2.84845C20.7322 2.28073 21.4417 1.3879 21.7807 0.336108C20.889 0.864536 19.914 1.23767 18.8974 1.43958C18.2746 0.773763 17.4659 0.310733 16.5764 0.110699C15.6869 -0.0893343 14.7578 -0.0171163 13.9099 0.317962C13.062 0.653041 12.3345 1.23548 11.8221 1.98954C11.3097 2.7436 11.0359 3.6344 11.0365 4.5461C11.0365 4.90316 11.0762 5.24915 11.1565 5.58038C9.34952 5.49144 7.58157 5.02274 5.96785 4.20483C4.35413 3.38692 2.93086 2.23816 1.7908 0.833409C1.38575 1.52678 1.17329 2.31577 1.1754 3.11878C1.1754 4.69372 1.97533 6.08506 3.1969 6.89975C2.47536 6.87685 1.76982 6.68133 1.13942 6.32956V6.38768C1.1388 7.43688 1.50149 8.45393 2.16587 9.26598C2.83024 10.078 3.7553 10.635 4.78384 10.8422C4.11499 11.0256 3.41291 11.0528 2.73189 10.9215C3.02198 11.8241 3.58675 12.6136 4.34732 13.1797C5.10789 13.7457 6.02627 14.0601 6.97418 14.0788C6.03184 14.8184 4.95288 15.365 3.79906 15.6872C2.64524 16.0093 1.43921 16.1008 0.25 15.9564C2.32642 17.2926 4.74393 18.0021 7.21314 18C15.5704 18 20.1411 11.0765 20.1411 5.072C20.1411 4.87825 20.1338 4.67896 20.1264 4.48428C21.0145 3.84126 21.7819 3.04633 22.3933 2.13617V2.13525Z" fill="#018F55"/>
</svg>
