<svg width="22" height="30" viewBox="0 0 22 30" fill="none" xmlns="http://www.w3.org/2000/svg">
<path d="M16.0417 23.3333C15.2396 23.3333 14.5527 23.048 13.981 22.4773C13.4103 21.9056 13.125 21.2188 13.125 20.4167C13.125 19.6146 13.4103 18.9277 13.981 18.356C14.5527 17.7853 15.2396 17.5 16.0417 17.5C16.8438 17.5 17.5306 17.7853 18.1023 18.356C18.673 18.9277 18.9583 19.6146 18.9583 20.4167C18.9583 21.2188 18.673 21.9056 18.1023 22.4773C17.5306 23.048 16.8438 23.3333 16.0417 23.3333ZM10.2083 29.1667V28.3281C10.2083 27.2587 10.7431 26.4022 11.8125 25.7585C12.8819 25.114 14.2917 24.7917 16.0417 24.7917C17.7917 24.7917 19.2014 25.114 20.2708 25.7585C21.3403 26.4022 21.875 27.2587 21.875 28.3281V29.1667H10.2083ZM14.5833 14.5833H11.6667V7.29167C11.6667 6.05208 11.2292 5.01278 10.3542 4.17375C9.47917 3.33569 8.45833 2.91667 7.29167 2.91667C6.125 2.91667 5.10417 3.33569 4.22917 4.17375C3.35417 5.01278 2.91667 6.05208 2.91667 7.29167V21.875C2.91667 23.0417 3.35417 24.0625 4.22917 24.9375C5.10417 25.8125 6.125 26.25 7.29167 26.25V29.1667C5.22569 29.1667 3.49417 28.4676 2.09708 27.0696C0.699027 25.6725 0 23.941 0 21.875V7.29167C0 5.22569 0.699027 3.49417 2.09708 2.09708C3.49417 0.699028 5.22569 0 7.29167 0C9.35764 0 11.0892 0.699028 12.4863 2.09708C13.8843 3.49417 14.5833 5.22569 14.5833 7.29167V14.5833ZM7.29167 11.6667C8.09375 11.6667 8.78063 11.3808 9.35229 10.8092C9.92299 10.2385 10.2083 9.55208 10.2083 8.75C10.2083 7.94792 9.92299 7.26153 9.35229 6.69083C8.78063 6.11917 8.09375 5.83333 7.29167 5.83333C6.48958 5.83333 5.80319 6.11917 5.2325 6.69083C4.66083 7.26153 4.375 7.94792 4.375 8.75C4.375 9.55208 4.66083 10.2385 5.2325 10.8092C5.80319 11.3808 6.48958 11.6667 7.29167 11.6667ZM4.375 20.4167C4.375 21.2188 4.66083 21.9056 5.2325 22.4773C5.80319 23.048 6.48958 23.3333 7.29167 23.3333C8.09375 23.3333 8.78063 23.048 9.35229 22.4773C9.92299 21.9056 10.2083 21.2188 10.2083 20.4167C10.2083 19.6146 9.92299 18.9277 9.35229 18.356C8.78063 17.7853 8.09375 17.5 7.29167 17.5C6.48958 17.5 5.80319 17.7853 5.2325 18.356C4.66083 18.9277 4.375 19.6146 4.375 20.4167ZM7.29167 21.875C6.85417 21.875 6.50174 21.7233 6.23437 21.42C5.96701 21.1157 5.83333 20.7813 5.83333 20.4167C5.83333 20.0521 5.96701 19.7176 6.23437 19.4133C6.50174 19.11 6.85417 18.9583 7.29167 18.9583C7.72917 18.9583 8.0816 19.092 8.34896 19.3594C8.61632 19.6267 8.75 19.9792 8.75 20.4167C8.75 20.7813 8.61632 21.1157 8.34896 21.42C8.0816 21.7233 7.72917 21.875 7.29167 21.875Z" fill="#018F55"/>
</svg>
