<svg width="60" height="57" viewBox="0 0 60 57" fill="none" xmlns="http://www.w3.org/2000/svg">
<path d="M10.4152 13.1098C10.5643 13.0415 10.4987 12.8942 10.3359 12.9141V12.9141C8.69921 13.2492 9.44772 13.5533 10.4152 13.1098ZM45.823 13.9947C45.5674 13.7466 45.7278 13.2174 45.4748 12.9668C45.396 12.8888 45.2732 12.8064 45.0897 12.7222C44.8343 12.605 44.4187 12.8322 44.2399 13.049V13.049C44.1707 13.1328 44.2394 13.2213 44.3183 13.296C45.105 14.0419 45.5756 15.1248 46.3541 15.7624C46.7858 16.116 47.3684 15.7229 47.073 15.2495C46.7816 14.7826 46.2437 14.4029 45.823 13.9947ZM10.0991 12.0697C10.0682 12.3022 9.9153 12.7375 10.1376 12.6629C10.3691 12.5852 10.717 11.7202 10.8586 11.0802C10.9023 10.8825 10.7004 10.7543 10.5211 10.8482V10.8482C10.3199 10.9535 10.3804 11.3131 10.3052 11.5273C10.224 11.7587 9.83424 12.0191 9.378 12.3416C9.32152 12.3816 9.26709 12.4325 9.2226 12.4855C7.93594 14.0168 10.1591 11.6178 10.0991 12.0697ZM30 0C13.4297 0 0 12.7582 0 28.5C0 44.2307 13.4297 57 30 57C46.5703 57 60 44.2307 60 28.5C60 12.7582 46.5703 0 30 0ZM30.7667 9.58945C30.7841 9.56744 30.8144 9.55751 30.8412 9.56599V9.56599C30.8874 9.58062 30.904 9.63865 30.8891 9.68475C30.6462 10.4333 33.6817 12.2569 31.4563 12.4611C31.3946 12.4668 31.3252 12.4781 31.2654 12.494C31.2547 12.4969 31.2443 12.4996 31.2339 12.5024C30.447 12.7112 30.2608 10.8739 30.485 10.0913C30.5262 9.94756 30.613 9.78349 30.7667 9.58945ZM17.0355 11.2507C16.7466 11.3451 16.4266 11.2471 16.1241 11.2178C15.0545 11.1143 13.2078 12.2376 14.0039 11.9121C15.9145 11.1991 14.752 11.7339 14.6172 12.5234C14.5625 12.8432 14.5311 13.4945 14.3665 13.2149C14.2418 13.0029 14.0979 12.5447 13.4324 13.1074C13.3524 13.175 13.2767 13.2189 13.1777 13.2531V13.2531C12.5721 13.4623 8.81538 16.5157 8.37431 16.9804C8.0386 17.3341 7.76625 17.7154 7.6557 18.1299C7.64488 18.1704 7.63189 18.2132 7.61642 18.2523C6.90638 20.0438 7.33797 18.4683 7.31329 17.5579C7.30869 17.3882 7.23862 17.2201 7.10006 17.1219C6.31002 16.5619 5.21858 17.8978 4.74154 19.28C4.47625 20.0487 5.59659 20.2873 5.30206 21.0452V21.0452C5.14117 21.4593 5.00292 22.0675 5.05435 22.5087C5.1912 23.6827 4.43327 24.9938 5.44725 25.8452C5.5447 25.9271 5.6697 25.9849 5.79159 25.9483C6.47751 25.7427 7.51895 24.0769 6.99609 26.1955C7.2333 24.9959 7.57849 25.3943 8.05887 25.7957C8.53505 26.1936 9.35858 26.6355 9.79306 27.0786V27.0786C10.1191 27.4111 10.5288 27.928 10.9633 28.0953C12.4706 28.6759 13.4486 30.9676 11.5195 31.4613C11.7634 31.3974 12.1762 31.6717 12.6757 31.6713C13.0729 31.671 13.5053 31.6649 13.8645 31.8344C15.2314 32.4794 17.4957 32.8324 18.0438 34.4095C18.1771 34.7932 17.9054 35.1597 17.5948 35.4215C16.1694 36.6233 17.2537 38.9454 15.7874 40.0018C15.62 40.1223 15.4034 40.1437 15.1971 40.1421C14.4078 40.136 14.1806 40.6131 14.1174 41.1495C14.0275 41.9123 13.5355 43.7103 12.8172 43.4385C12.3242 43.252 11.9001 42.9395 12.3207 43.4387C12.3708 43.4982 12.5726 43.6345 12.6374 43.6775V43.6775C13.2375 44.0758 12.6839 46.659 13.0516 47.2783C13.1441 47.4342 13.2234 47.577 13.2769 47.6959C13.3024 47.7528 13.3321 47.8121 13.3657 47.8647C14.6123 49.8205 12.3087 47.5209 11.4182 46.6721C11.3374 46.5951 11.2707 46.5072 11.2176 46.409C10.429 44.9491 8.76075 42.3295 8.28516 40.1672C8.00598 36.9404 5.39436 34.7666 4.75989 31.6315C4.75051 31.5851 4.73795 31.5393 4.7244 31.494C4.19382 29.7201 6.40635 26.94 5.19141 25.9617C4.19999 25.2269 4.50503 22.837 4.04435 21.3595C3.97865 21.1488 3.95319 20.9244 4.00916 20.7108C5.67847 14.343 10.6374 8.98476 16.5703 5.78906C16.0596 6.14608 18.7896 5.15571 19.509 5.00285C19.6629 4.97015 19.692 5.09036 19.8421 5.04319C20.4677 4.84656 22.3777 3.94673 23.625 3.78516C23.5234 3.79894 22.0074 4.30755 21.12 4.65086C20.988 4.70192 19.8009 5.34177 19.9403 5.36633V5.36633C20.0871 5.3922 20.1805 5.50675 20.0405 5.5579C18.9599 5.95266 17.9346 5.98869 16.6068 6.69823C16.5751 6.71516 16.5398 6.72873 16.5051 6.73808C15.7213 6.94943 15.3445 7.40948 15.0627 7.93768C14.6406 8.72872 15.1217 9.31353 15.8149 8.74489C16.4672 8.2098 17.1314 7.63269 17.6367 7.31426C18.1477 7.07911 18.4104 7.01787 18.5202 7.06127C18.7937 7.16933 17.9068 10.0817 17.685 10.2748V10.2748C17.6337 10.3195 17.5841 10.3231 17.6292 10.3741C17.7576 10.5189 18.0887 10.9063 17.0355 11.2507ZM20.9311 6.36217C20.7781 6.36517 20.591 6.36515 20.5047 6.49147C20.4116 6.62776 20.3132 6.77261 20.2171 6.87847C20.0194 7.09632 19.6458 7.06454 19.4219 7.25525C19.3058 7.35408 19.1675 7.39985 18.958 7.27062C18.8773 7.22087 18.9123 7.08175 18.9798 7.01524V7.01524C19.0972 6.8996 19.4779 6.36863 19.6292 6.30333C20.2388 6.04024 21.031 5.72531 21.4395 5.47784C21.6421 5.35508 21.9145 5.13881 22.0245 4.92894C22.0602 4.86078 21.9922 4.83522 21.8226 4.86819C21.6663 4.89858 21.5063 4.8521 21.6138 4.73463C21.8502 4.47636 22.6016 4.05821 23.5195 3.98555C23.6857 3.98555 23.7576 4.08498 23.4979 4.06771C23.4658 4.06558 23.4318 4.06855 23.4009 4.07756C21.9676 4.49632 22.1378 4.49605 22.8827 4.28942C22.9741 4.26408 22.9101 4.40379 22.8285 4.45202V4.45202C22.7638 4.49028 22.8851 4.47997 22.957 4.45793C23.3764 4.32932 23.3418 4.40786 23.2153 4.52206C23.1625 4.5698 22.7874 4.96619 22.755 5.02965V5.02965C22.7234 5.09173 22.0636 5.4471 22.0071 5.48789C21.9381 5.53769 21.8688 5.59034 21.8119 5.63842C21.7299 5.70783 21.6556 5.99898 21.5695 6.06329C21.2851 6.27571 21.0818 6.35921 20.9311 6.36217ZM21.7969 7.84863C21.8014 7.64038 21.8665 7.44691 21.9669 7.26998C22.2683 6.73866 23.3313 5.71018 23.8641 5.41141V5.41141C23.9359 5.37117 24.1608 5.2761 24.2374 5.24607C24.8581 5.00283 26.0342 3.46063 27.6252 3.33183C27.6535 3.32954 27.6832 3.32431 27.7105 3.31654C29.3877 2.83904 28.83 3.26526 29.7684 2.96256C29.8284 2.94322 29.8738 3.02411 29.8244 3.06322V3.06322C29.8166 3.0694 29.807 3.07319 29.7973 3.07536C29.6163 3.1157 29.7729 3.40271 29.3351 3.84727C29.1299 4.0556 28.9987 4.34325 28.7961 4.55412C28.3721 4.99545 27.4297 4.85746 28.0781 5.7V5.7C27.7755 5.28841 26.8748 6.19128 26.3886 6.34797C25.2684 6.70896 23.9138 7.04627 23.1328 7.89316C22.3828 8.91738 21.6914 8.59453 21.7969 7.84863ZM30.2303 11.2873C30.168 11.3732 30.1082 11.4621 30.0612 11.5571C29.3641 12.9693 28.7323 11.4837 29.6258 10.9451C29.8284 10.823 30.121 10.8214 30.2758 11.0002C30.3359 11.0697 30.329 11.1514 30.2303 11.2873ZM27.4937 7.85802C27.2487 7.83945 27.0585 7.6329 27.0443 7.38756C27.0293 7.12853 27.2772 7.237 28.0232 7.08898C28.3129 7.0315 28.7373 7.04256 28.7524 7.33755C28.7701 7.6813 28.0153 7.89755 27.4937 7.85802ZM49.869 39.5109C49.4965 39.9847 48.6297 39.9507 48.673 39.3495C48.6769 39.295 48.6833 39.2406 48.6919 39.1863C48.8591 38.133 50.5284 38.6726 49.869 39.5109V39.5109ZM53.3297 19.9395C53.2279 19.8784 53.0363 19.8318 52.918 19.8422C51.8363 19.9375 50.8474 20.1356 49.8622 19.6041C49.7842 19.5621 49.7105 19.5007 49.6483 19.4378C47.8292 17.5967 49.2301 20.5149 50.301 20.7454C50.84 20.8614 51.4878 20.3296 51.8535 20.7421C53.1327 22.185 51.1676 25.2126 49.5713 25.4277C49.2809 25.4668 49.0399 25.2531 48.909 24.9909C48.6631 24.4983 48.4019 23.9998 48.1166 23.5133C47.5593 22.563 46.9179 23.1909 47.5821 24.0698C47.9186 24.5151 48.2802 24.944 48.6902 25.3435C48.8815 25.53 48.9865 25.7848 49.0574 26.0424C49.4562 27.4928 51.5127 24.9996 51.4507 26.4901C51.4485 26.5436 51.4477 26.6017 51.4505 26.6552C51.6091 29.6474 47.891 31.4806 48.4311 34.4711C48.4465 34.5565 48.4794 34.6424 48.5163 34.721C49.6971 37.2374 46.2291 37.8778 46.1022 39.9477C46.0826 40.2677 46.0064 40.5944 45.7894 40.8305C44.3463 42.4007 42.7692 44.2494 40.4071 44.3663C39.9041 44.3912 39.5341 43.9504 39.4445 43.4548C39.2479 42.3672 38.7553 41.3534 38.5616 40.2038C38.5296 40.0135 38.4477 39.8344 38.3444 39.6713C37.1626 37.8053 39.9793 35.8221 38.355 33.8807C38.2326 33.7344 38.052 33.6509 37.8731 33.5851C36.0956 32.9313 38.1795 30.386 36.6124 30.2249C36.3164 30.1944 36.0223 30.106 35.7703 29.9477C34.2799 29.0115 32.2431 30.1931 30.2461 30.2033C27.6772 30.4347 25.035 27.3961 25.7699 25.0224C25.8527 24.7549 25.8631 24.4671 25.8143 24.1913C25.4565 22.1708 28.477 21.3578 29.0089 19.595C29.0922 19.3188 29.2127 19.0409 29.4541 18.8829C31.0208 17.8583 33.0392 17.7813 35.0712 17.5959C35.7177 17.5369 36.2394 18.1695 36.6855 18.6411C37.1224 19.103 37.9007 19.3005 38.6895 19.527C39.2082 19.676 39.7583 19.3526 40.252 19.1345C41.3013 18.6709 43.0602 19.7198 44.4528 19.118C44.6874 19.0166 44.837 18.7842 44.8711 18.531C45.165 16.3529 43.1776 17.644 41.8962 16.9903C41.7909 16.9366 41.7031 16.8487 41.6404 16.7485C40.6245 15.1268 43.4404 15.4248 44.4017 15.0472C44.767 14.9037 44.4031 14.5998 44.0399 14.4512C43.5904 14.2674 43.4431 13.8889 43.339 13.5872C43.1659 13.0847 42.9671 14.2743 42.4647 14.1009V14.1009C42.1857 14.0045 42.0301 13.5249 41.7358 13.5478C40.8507 13.6166 41.7203 15.1421 41.4478 15.7137C41.3573 15.9036 41.0983 15.8594 40.8953 15.8042C40.3148 15.6464 40.2371 15.8996 40.3075 16.1873C40.3995 16.5632 40.4441 17.2049 40.101 17.0258C39.5768 16.7522 38.8818 15.1606 37.7129 14.9502C37.5037 14.9126 37.293 14.847 37.1256 14.716C36.1011 13.9139 36.3732 14.7711 37.1612 15.433C37.4067 15.6392 38.1966 17.078 38.0039 16.8217V16.8217C36.7746 15.2145 34.4816 14.123 33.026 15.8691C32.9114 16.0066 32.8601 16.184 32.8103 16.3559C32.3487 17.9492 29.0569 18.3886 29.1949 16.6573C29.213 16.4296 29.2024 16.1944 29.1474 15.9727C28.758 14.4032 31.5453 15.7901 31.8684 14.8227C31.9557 14.5613 31.7374 14.3137 31.5129 14.1538C29.9141 13.0148 31.9563 13.165 33.0333 12.2743C33.3174 12.0395 33.6654 11.8761 34.0165 11.7639C34.2208 11.6985 34.3122 11.5846 34.3407 11.4429C34.4919 10.6905 34.513 11.0025 35.2682 11.1385C35.5866 11.1958 35.9649 11.1633 36.3512 11.0937C36.7954 11.0137 37.0322 10.4304 37.282 10.0544V10.0544C37.5777 9.60932 38.6315 8.78338 38.102 8.71121C37.76 8.66458 36.2281 8.83997 35.9773 8.06173C35.8288 7.60101 35.5293 6.86855 35.413 7.3384C35.3207 7.71107 35.4998 8.41954 35.7361 8.89189C35.8952 9.20971 36.1191 9.57216 35.9887 9.90279C35.7961 10.3915 35.3242 10.6706 34.7124 9.91907C34.5173 9.67928 33.8293 9.7712 33.5334 9.6814V9.6814C33.0403 9.5317 33.5709 7.97478 33.8697 7.55487C34.0011 7.37027 34.0978 7.13954 34.1116 6.82934C34.1134 6.78957 34.1105 6.74879 34.1054 6.70931C34.0599 6.35796 34.0442 6.08505 34.1013 5.89058C34.2149 5.50315 34.8785 5.59502 35.2782 5.6523C35.8263 5.73084 36.611 5.86395 37.22 6.1559C37.4462 6.26431 37.3322 6.50406 37.0823 6.4826C36.452 6.42846 36.9442 6.69709 37.5956 6.99318C37.7227 7.05095 38.346 7.04887 38.3672 6.9109V6.9109C38.3846 6.79775 38.0718 6.28805 38.0086 6.1926C37.8225 5.91168 37.5865 5.6272 38.4609 6.3791V6.3791C38.3166 6.21583 39.0881 5.09156 38.8872 5.00721C38.6963 4.92708 38.4849 4.8404 38.2734 4.75371C37.3724 4.24403 37.4675 4.23582 37.964 4.43277C38.6222 4.69384 37.9799 4.37931 38.6602 4.57559V4.57559C37.4531 4.07461 38.625 4.35293 39.7148 4.67578C38.0881 4.19458 35.7894 3.36724 35.127 3.0761C34.9957 3.01839 35.0195 2.9763 35.1622 2.99003C35.7671 3.04822 36.3617 3.1807 36.9375 3.33984C38.645 3.82363 37.0258 3.38598 36.8501 3.2528C36.7918 3.20864 36.95 3.22607 37.0209 3.24369C43.8475 4.93898 49.8245 9.28941 53.4764 14.9692C53.4973 15.0017 53.5197 15.0294 53.5457 15.0581C53.6972 15.2259 53.8889 15.5257 54.0964 15.8948C54.363 16.369 56.1691 23.3058 56.2294 23.8465V23.8465C56.2778 24.2802 55.8973 24.4098 55.7292 24.0071C55.544 23.5633 55.3578 23.0574 55.1746 22.5577C54.9316 21.8948 53.935 20.3029 53.3297 19.9395V19.9395Z" fill="#018F55"/>
</svg>
