<svg width="23" height="25" viewBox="0 0 23 25" fill="none" xmlns="http://www.w3.org/2000/svg">
<path d="M16.2685 8.32955C16.1397 7.85227 15.9503 7.43182 15.7003 7.06818C15.4503 6.69697 15.1435 6.38258 14.7798 6.125C14.4162 5.86742 13.9995 5.67424 13.5298 5.54545C13.0601 5.40909 12.545 5.34091 11.9844 5.34091C10.8556 5.34091 9.87831 5.61364 9.05256 6.15909C8.23438 6.70454 7.6018 7.5 7.15483 8.54545C6.70786 9.58333 6.48438 10.8447 6.48438 12.3295C6.48438 13.822 6.70028 15.0947 7.1321 16.1477C7.56392 17.2008 8.18892 18.0038 9.0071 18.5568C9.82528 19.1098 10.8177 19.3864 11.9844 19.3864C13.0147 19.3864 13.8859 19.2197 14.598 18.8864C15.3177 18.5455 15.8632 18.0644 16.2344 17.4432C16.6056 16.822 16.7912 16.0909 16.7912 15.25L17.8366 15.375H12.1776V11.2727H22.2116V14.3523C22.2116 16.4356 21.7685 18.2197 20.8821 19.7045C20.0033 21.1894 18.7912 22.3295 17.2457 23.125C15.7079 23.9205 13.9389 24.3182 11.9389 24.3182C9.71922 24.3182 7.76847 23.8371 6.08665 22.875C4.40483 21.9129 3.09422 20.5417 2.15483 18.7614C1.21544 16.9735 0.745739 14.8523 0.745739 12.3977C0.745739 10.4886 1.02983 8.79545 1.59801 7.31818C2.16619 5.83333 2.95786 4.57576 3.97301 3.54545C4.99574 2.51515 6.17756 1.73485 7.51847 1.20454C8.86695 0.674241 10.3177 0.40909 11.8707 0.40909C13.2192 0.40909 14.473 0.602272 15.6321 0.988636C16.7988 1.375 17.8291 1.92045 18.723 2.625C19.6245 3.32955 20.3556 4.16667 20.9162 5.13636C21.4768 6.10606 21.8253 7.17045 21.9616 8.32955H16.2685Z" fill="#018F55"/>
</svg>
